# xmcd
#
# Track frame offsets:
#	150
#	12625
#	24675
#	38587
#	51500
#	65850
#	76200
#	87875
#	101650
#	114300
#	128550
#	142550
#	153775
#	169875
#
# Disc length: 2460 seconds
#
# Revision: 2
# Processed by: cddbd v1.5.2PL0 Copyright (c) Steve Scherf et al.
# Submitted via: audiograbber 1.83.01
#
DISCID=ad099a0e
DTITLE=Ronny - Ronny Singt Western Songs
DYEAR=1900
DGENRE=Country
TTITLE0=Oh My Darling Caroline
TTITLE1=Muﬂt Nicht Weinen Um Mich
TTITLE2=Oh Muchachos
TTITLE3=Welcome Stranger
TTITLE4=Bei Dir Am Red River ( Wenn Es Tag Wird...)
TTITLE5=Jesse James
TTITLE6=Little Sweetheart Belinda
TTITLE7=Laura, Oh Laura
TTITLE8=Oh Shenandoah
TTITLE9=Alle Wunder Dieser Welt (Hullabaloo)
TTITLE10=Ich Denk An Dich
TTITLE11=Tr‰ume, Liebling
TTITLE12=Es H‰ngt Ein Pferdehalfter An Der Wand
TTITLE13=Adios, My Darling
EXTD=
EXTT0=
EXTT1=
EXTT2=
EXTT3=
EXTT4=
EXTT5=
EXTT6=
EXTT7=
EXTT8=
EXTT9=
EXTT10=
EXTT11=
EXTT12=
EXTT13=
PLAYORDER=
